<svg width="24" height="24" viewBox="0 0 24 24" fill="none" xmlns="http://www.w3.org/2000/svg">
<g clip-path="url(#clip0_230_748)">
<path d="M20.48 3.51199C19.3665 2.39641 18.0437 1.51171 16.5874 0.90868C15.1312 0.305652 13.5702 -0.00383162 11.994 -0.00200613C5.36598 -0.00200613 -0.00701904 5.37099 -0.00701904 11.999C-0.00701904 15.313 1.33698 18.314 3.50898 20.486C4.62244 21.6016 5.94527 22.4863 7.40153 23.0893C8.85779 23.6923 10.4188 24.0018 11.995 24C18.623 24 23.996 18.627 23.996 11.999C23.996 8.68499 22.652 5.68399 20.48 3.51199ZM18.938 18.939C18.0268 19.8516 16.9445 20.5754 15.7531 21.069C14.5617 21.5625 13.2846 21.816 11.995 21.815C6.57198 21.815 2.17598 17.419 2.17598 11.996C2.17497 10.7064 2.42849 9.42928 2.92201 8.23786C3.41554 7.04644 4.13936 5.96413 5.05198 5.05299C5.963 4.14049 7.04514 3.41674 8.23638 2.92322C9.42763 2.4297 10.7046 2.17611 11.994 2.17699C17.416 2.17699 21.812 6.57299 21.812 11.995C21.8129 13.2844 21.5593 14.5613 21.0658 15.7526C20.5722 16.9438 19.8485 18.026 18.936 18.937L18.938 18.939Z" fill="#C2C2C2"/>
<path d="M13.537 12L17.392 8.14501C17.5822 7.93774 17.6849 7.66503 17.6788 7.38381C17.6727 7.10258 17.5582 6.83459 17.3593 6.63575C17.1603 6.43692 16.8922 6.32261 16.611 6.3167C16.3298 6.31078 16.0571 6.41371 15.85 6.60401L15.851 6.60301L11.996 10.458L8.14099 6.60301C7.93372 6.41285 7.66101 6.31009 7.37979 6.31619C7.09857 6.32229 6.83057 6.43677 6.63174 6.63573C6.4329 6.83469 6.3186 7.10277 6.31268 7.38399C6.30677 7.66522 6.4097 7.93786 6.59999 8.14501L6.59899 8.14401L10.454 11.999L6.59899 15.854C6.49053 15.9535 6.40332 16.0739 6.34263 16.208C6.28193 16.3421 6.24899 16.4871 6.2458 16.6343C6.24261 16.7814 6.26923 16.9277 6.32406 17.0643C6.37889 17.2009 6.46079 17.325 6.56484 17.4291C6.66889 17.5333 6.79293 17.6152 6.92949 17.6702C7.06606 17.7251 7.21233 17.7518 7.35949 17.7487C7.50665 17.7456 7.65166 17.7128 7.7858 17.6521C7.91993 17.5915 8.04041 17.5044 8.13999 17.396L8.14099 17.395L11.996 13.54L15.851 17.395C15.9505 17.5035 16.0709 17.5907 16.205 17.6514C16.3391 17.7121 16.4841 17.745 16.6313 17.7482C16.7784 17.7514 16.9247 17.7248 17.0613 17.6699C17.1979 17.6151 17.322 17.5332 17.4261 17.4292C17.5302 17.3251 17.6122 17.2011 17.6671 17.0645C17.7221 16.9279 17.7488 16.7817 17.7457 16.6345C17.7426 16.4874 17.7097 16.3423 17.6491 16.2082C17.5885 16.0741 17.5014 15.9536 17.393 15.854L17.392 15.853L13.537 12Z" fill="#C2C2C2"/>
</g>
<defs>
<clipPath id="clip0_230_748">
<rect width="24" height="24" fill="white"/>
</clipPath>
</defs>
</svg>
