<svg width="80" height="82" viewBox="0 0 80 82" fill="none" xmlns="http://www.w3.org/2000/svg">
<path d="M34.3288 5.0683C29.1464 7.25037 24.0136 4.42985 18.3044 7.11395C12.2543 9.95827 11.2127 13.8647 6.03027 19.047C-0.447725 25.525 -0.106791 34.7306 0.575102 48.3685C1.25699 62.0064 11.1445 63.3701 18.3044 69.5072C25.4643 75.6442 27.8508 81.7813 36.3745 81.7813C44.8982 81.7813 47.6258 80.7584 61.2636 71.5529C74.9015 62.3473 73.8787 54.8465 78.9929 34.7306C84.1071 14.6147 53.0809 1.99976 49.6715 0.635977C46.262 -0.727811 40.8068 2.34071 34.3288 5.0683Z" fill="url(#paint0_linear_246_3)"/>
<defs>
<linearGradient id="paint0_linear_246_3" x1="19.3357" y1="7.07041" x2="59.7043" y2="77.2767" gradientUnits="userSpaceOnUse">
<stop stop-color="#50BDDC"/>
<stop offset="0.463542" stop-color="#6AAEE1"/>
<stop offset="1" stop-color="#54B6FF"/>
</linearGradient>
</defs>
</svg>
